<svg xmlns="http://www.w3.org/2000/svg" xmlns:xlink="http://www.w3.org/1999/xlink" version="1.1" class="marks" width="358" height="542" viewBox="0 0 358 542"><rect width="358" height="542" fill="white"/><g fill="none" stroke-miterlimit="10" transform="translate(53,5)"><g class="mark-group role-frame root" role="graphics-object" aria-roledescription="group mark container"><g transform="translate(0,0)"><path class="background" aria-hidden="true" d="M0.5,0.5h300v500h-300Z" stroke="#ddd"/><g><g class="mark-group role-axis" role="graphics-symbol" aria-roledescription="axis" aria-label="X-axis titled 'datetime (day)' for a discrete scale with 7 values: Sunday, Monday, Tuesday, Wednesday, Thursday, Friday, Saturday"><g transform="translate(0.5,500.5)"><path class="background" aria-hidden="true" d="M0,0h0v0h0Z" pointer-events="none"/><g><g class="mark-rule role-axis-tick" pointer-events="none"><line transform="translate(21,0)" x2="0" y2="5" stroke="#888" stroke-width="1" opacity="1"/><line transform="translate(64,0)" x2="0" y2="5" stroke="#888" stroke-width="1" opacity="1"/><line transform="translate(107,0)" x2="0" y2="5" stroke="#888" stroke-width="1" opacity="1"/><line transform="translate(150,0)" x2="0" y2="5" stroke="#888" stroke-width="1" opacity="1"/><line transform="translate(193,0)" x2="0" y2="5" stroke="#888" stroke-width="1" opacity="1"/><line transform="translate(236,0)" x2="0" y2="5" stroke="#888" stroke-width="1" opacity="1"/><line transform="translate(279,0)" x2="0" y2="5" stroke="#888" stroke-width="1" opacity="1"/></g><g class="mark-text role-axis-label" pointer-events="none"><text text-anchor="middle" transform="translate(21.428571428571445,15)" font-family="sans-serif" font-size="10px" fill="#000" opacity="1">Sun</text><text text-anchor="middle" transform="translate(64.2857142857143,15)" font-family="sans-serif" font-size="10px" fill="#000" opacity="1">Mon</text><text text-anchor="middle" transform="translate(107.14285714285715,15)" font-family="sans-serif" font-size="10px" fill="#000" opacity="1">Tue</text><text text-anchor="middle" transform="translate(150,15)" font-family="sans-serif" font-size="10px" fill="#000" opacity="1">Wed</text><text text-anchor="middle" transform="translate(192.85714285714286,15)" font-family="sans-serif" font-size="10px" fill="#000" opacity="1">Thu</text><text text-anchor="middle" transform="translate(235.71428571428572,15)" font-family="sans-serif" font-size="10px" fill="#000" opacity="1">Fri</text><text text-anchor="middle" transform="translate(278.57142857142856,15)" font-family="sans-serif" font-size="10px" fill="#000" opacity="1">Sat</text></g><g class="mark-rule role-axis-domain" pointer-events="none"><line transform="translate(0,0)" x2="300" y2="0" stroke="#888" stroke-width="1" opacity="1"/></g><g class="mark-text role-axis-title" pointer-events="none"><text text-anchor="middle" transform="translate(150,30)" font-family="sans-serif" font-size="11px" font-weight="bold" fill="#000" opacity="1">datetime (day)</text></g></g><path class="foreground" aria-hidden="true" d="" pointer-events="none" display="none"/></g></g><g class="mark-group role-axis" role="graphics-symbol" aria-roledescription="axis" aria-label="Y-axis titled 'datetime (hours)' for a discrete scale with 24 values: 00:00, 01:00, 02:00, 03:00, 04:00, ending with 23:00"><g transform="translate(0.5,0.5)"><path class="background" aria-hidden="true" d="M0,0h0v0h0Z" pointer-events="none"/><g><g class="mark-rule role-axis-tick" pointer-events="none"><line transform="translate(0,10)" x2="-5" y2="0" stroke="#888" stroke-width="1" opacity="1"/><line transform="translate(0,31)" x2="-5" y2="0" stroke="#888" stroke-width="1" opacity="1"/><line transform="translate(0,52)" x2="-5" y2="0" stroke="#888" stroke-width="1" opacity="1"/><line transform="translate(0,73)" x2="-5" y2="0" stroke="#888" stroke-width="1" opacity="1"/><line transform="translate(0,94)" x2="-5" y2="0" stroke="#888" stroke-width="1" opacity="1"/><line transform="translate(0,115)" x2="-5" y2="0" stroke="#888" stroke-width="1" opacity="1"/><line transform="translate(0,135)" x2="-5" y2="0" stroke="#888" stroke-width="1" opacity="1"/><line transform="translate(0,156)" x2="-5" y2="0" stroke="#888" stroke-width="1" opacity="1"/><line transform="translate(0,177)" x2="-5" y2="0" stroke="#888" stroke-width="1" opacity="1"/><line transform="translate(0,198)" x2="-5" y2="0" stroke="#888" stroke-width="1" opacity="1"/><line transform="translate(0,219)" x2="-5" y2="0" stroke="#888" stroke-width="1" opacity="1"/><line transform="translate(0,240)" x2="-5" y2="0" stroke="#888" stroke-width="1" opacity="1"/><line transform="translate(0,260)" x2="-5" y2="0" stroke="#888" stroke-width="1" opacity="1"/><line transform="translate(0,281)" x2="-5" y2="0" stroke="#888" stroke-width="1" opacity="1"/><line transform="translate(0,302)" x2="-5" y2="0" stroke="#888" stroke-width="1" opacity="1"/><line transform="translate(0,323)" x2="-5" y2="0" stroke="#888" stroke-width="1" opacity="1"/><line transform="translate(0,344)" x2="-5" y2="0" stroke="#888" stroke-width="1" opacity="1"/><line transform="translate(0,365)" x2="-5" y2="0" stroke="#888" stroke-width="1" opacity="1"/><line transform="translate(0,385)" x2="-5" y2="0" stroke="#888" stroke-width="1" opacity="1"/><line transform="translate(0,406)" x2="-5" y2="0" stroke="#888" stroke-width="1" opacity="1"/><line transform="translate(0,427)" x2="-5" y2="0" stroke="#888" stroke-width="1" opacity="1"/><line transform="translate(0,448)" x2="-5" y2="0" stroke="#888" stroke-width="1" opacity="1"/><line transform="translate(0,469)" x2="-5" y2="0" stroke="#888" stroke-width="1" opacity="1"/><line transform="translate(0,490)" x2="-5" y2="0" stroke="#888" stroke-width="1" opacity="1"/></g><g class="mark-text role-axis-label" pointer-events="none"><text text-anchor="end" transform="translate(-7,13.416666666666686)" font-family="sans-serif" font-size="10px" fill="#000" opacity="1">00:00</text><text text-anchor="end" transform="translate(-7,34.250000000000014)" font-family="sans-serif" font-size="10px" fill="#000" opacity="1">01:00</text><text text-anchor="end" transform="translate(-7,55.08333333333335)" font-family="sans-serif" font-size="10px" fill="#000" opacity="1">02:00</text><text text-anchor="end" transform="translate(-7,75.91666666666669)" font-family="sans-serif" font-size="10px" fill="#000" opacity="1">03:00</text><text text-anchor="end" transform="translate(-7,96.75000000000001)" font-family="sans-serif" font-size="10px" fill="#000" opacity="1">04:00</text><text text-anchor="end" transform="translate(-7,117.58333333333334)" font-family="sans-serif" font-size="10px" fill="#000" opacity="1">05:00</text><text text-anchor="end" transform="translate(-7,138.41666666666669)" font-family="sans-serif" font-size="10px" fill="#000" opacity="1">06:00</text><text text-anchor="end" transform="translate(-7,159.25)" font-family="sans-serif" font-size="10px" fill="#000" opacity="1">07:00</text><text text-anchor="end" transform="translate(-7,180.08333333333334)" font-family="sans-serif" font-size="10px" fill="#000" opacity="1">08:00</text><text text-anchor="end" transform="translate(-7,200.91666666666669)" font-family="sans-serif" font-size="10px" fill="#000" opacity="1">09:00</text><text text-anchor="end" transform="translate(-7,221.75)" font-family="sans-serif" font-size="10px" fill="#000" opacity="1">10:00</text><text text-anchor="end" transform="translate(-7,242.58333333333334)" font-family="sans-serif" font-size="10px" fill="#000" opacity="1">11:00</text><text text-anchor="end" transform="translate(-7,263.4166666666667)" font-family="sans-serif" font-size="10px" fill="#000" opacity="1">12:00</text><text text-anchor="end" transform="translate(-7,284.25)" font-family="sans-serif" font-size="10px" fill="#000" opacity="1">13:00</text><text text-anchor="end" transform="translate(-7,305.0833333333333)" font-family="sans-serif" font-size="10px" fill="#000" opacity="1">14:00</text><text text-anchor="end" transform="translate(-7,325.9166666666667)" font-family="sans-serif" font-size="10px" fill="#000" opacity="1">15:00</text><text text-anchor="end" transform="translate(-7,346.75)" font-family="sans-serif" font-size="10px" fill="#000" opacity="1">16:00</text><text text-anchor="end" transform="translate(-7,367.5833333333333)" font-family="sans-serif" font-size="10px" fill="#000" opacity="1">17:00</text><text text-anchor="end" transform="translate(-7,388.4166666666667)" font-family="sans-serif" font-size="10px" fill="#000" opacity="1">18:00</text><text text-anchor="end" transform="translate(-7,409.25)" font-family="sans-serif" font-size="10px" fill="#000" opacity="1">19:00</text><text text-anchor="end" transform="translate(-7,430.0833333333333)" font-family="sans-serif" font-size="10px" fill="#000" opacity="1">20:00</text><text text-anchor="end" transform="translate(-7,450.9166666666667)" font-family="sans-serif" font-size="10px" fill="#000" opacity="1">21:00</text><text text-anchor="end" transform="translate(-7,471.75)" font-family="sans-serif" font-size="10px" fill="#000" opacity="1">22:00</text><text text-anchor="end" transform="translate(-7,492.5833333333333)" font-family="sans-serif" font-size="10px" fill="#000" opacity="1">23:00</text></g><g class="mark-rule role-axis-domain" pointer-events="none"><line transform="translate(0,0)" x2="0" y2="500" stroke="#888" stroke-width="1" opacity="1"/></g><g class="mark-text role-axis-title" pointer-events="none"><text text-anchor="middle" transform="translate(-36.0244140625,250) rotate(-90) translate(0,-2)" font-family="sans-serif" font-size="11px" font-weight="bold" fill="#000" opacity="1">datetime (hours)</text></g></g><path class="foreground" aria-hidden="true" d="" pointer-events="none" display="none"/></g></g><g class="mark-symbol role-mark marks" role="graphics-object" aria-roledescription="symbol mark container"><path aria-label="Mean of dead_count: 0.0404624277457; datetime (day): Thu; datetime (hours): 16:00" role="graphics-symbol" aria-roledescription="circle" transform="translate(192.85714285714286,343.75)" d="M4.03037475549395,0A4.03037475549395,4.03037475549395,0,1,1,-4.03037475549395,0A4.03037475549395,4.03037475549395,0,1,1,4.03037475549395,0" fill="black" stroke-width="2"/><path aria-label="Mean of dead_count: 0.0325379609544; datetime (day): Mon; datetime (hours): 09:00" role="graphics-symbol" aria-roledescription="circle" transform="translate(64.2857142857143,197.91666666666669)" d="M3.6142203619720537,0A3.6142203619720537,3.6142203619720537,0,1,1,-3.6142203619720537,0A3.6142203619720537,3.6142203619720537,0,1,1,3.6142203619720537,0" fill="black" stroke-width="2"/><path aria-label="Mean of dead_count: 0.0589390962672; datetime (day): Wed; datetime (hours): 15:00" role="graphics-symbol" aria-roledescription="circle" transform="translate(150,322.9166666666667)" d="M4.864309475453801,0A4.864309475453801,4.864309475453801,0,1,1,-4.864309475453801,0A4.864309475453801,4.864309475453801,0,1,1,4.864309475453801,0" fill="black" stroke-width="2"/><path aria-label="Mean of dead_count: 0.0833333333333; datetime (day): Tue; datetime (hours): 23:00" role="graphics-symbol" aria-roledescription="circle" transform="translate(107.14285714285715,489.5833333333333)" d="M5.784007380641067,0A5.784007380641067,5.784007380641067,0,1,1,-5.784007380641067,0A5.784007380641067,5.784007380641067,0,1,1,5.784007380641067,0" fill="black" stroke-width="2"/><path aria-label="Mean of dead_count: 0.0357142857143; datetime (day): Sun; datetime (hours): 17:00" role="graphics-symbol" aria-roledescription="circle" transform="translate(21.428571428571445,364.5833333333333)" d="M3.786521663138707,0A3.786521663138707,3.786521663138707,0,1,1,-3.786521663138707,0A3.786521663138707,3.786521663138707,0,1,1,3.786521663138707,0" fill="black" stroke-width="2"/><path aria-label="Mean of dead_count: 0.0352250489237; datetime (day): Fri; datetime (hours): 13:00" role="graphics-symbol" aria-roledescription="circle" transform="translate(235.71428571428572,281.25)" d="M3.7604971508808296,0A3.7604971508808296,3.7604971508808296,0,1,1,-3.7604971508808296,0A3.7604971508808296,3.7604971508808296,0,1,1,3.7604971508808296,0" fill="black" stroke-width="2"/><path aria-label="Mean of dead_count: 0.0330396475771; datetime (day): Thu; datetime (hours): 11:00" role="graphics-symbol" aria-roledescription="circle" transform="translate(192.85714285714286,239.58333333333334)" d="M3.6419767131960437,0A3.6419767131960437,3.6419767131960437,0,1,1,-3.6419767131960437,0A3.6419767131960437,3.6419767131960437,0,1,1,3.6419767131960437,0" fill="black" stroke-width="2"/><path aria-label="Mean of dead_count: 0.0540069686411; datetime (day): Wed; datetime (hours): 20:00" role="graphics-symbol" aria-roledescription="circle" transform="translate(150,427.0833333333333)" d="M4.656336545271216,0A4.656336545271216,4.656336545271216,0,1,1,-4.656336545271216,0A4.656336545271216,4.656336545271216,0,1,1,4.656336545271216,0" fill="black" stroke-width="2"/><path aria-label="Mean of dead_count: 0.0411764705882; datetime (day): Fri; datetime (hours): 07:00" role="graphics-symbol" aria-roledescription="circle" transform="translate(235.71428571428572,156.25)" d="M4.065781363195307,0A4.065781363195307,4.065781363195307,0,1,1,-4.065781363195307,0A4.065781363195307,4.065781363195307,0,1,1,4.065781363195307,0" fill="black" stroke-width="2"/><path aria-label="Mean of dead_count: 0.0467445742905; datetime (day): Thu; datetime (hours): 17:00" role="graphics-symbol" aria-roledescription="circle" transform="translate(192.85714285714286,364.5833333333333)" d="M4.3319662654837545,0A4.3319662654837545,4.3319662654837545,0,1,1,-4.3319662654837545,0A4.3319662654837545,4.3319662654837545,0,1,1,4.3319662654837545,0" fill="black" stroke-width="2"/><path aria-label="Mean of dead_count: 0.0771144278607; datetime (day): Thu; datetime (hours): 22:00" role="graphics-symbol" aria-roledescription="circle" transform="translate(192.85714285714286,468.75)" d="M5.564002056821783,0A5.564002056821783,5.564002056821783,0,1,1,-5.564002056821783,0A5.564002056821783,5.564002056821783,0,1,1,5.564002056821783,0" fill="black" stroke-width="2"/><path aria-label="Mean of dead_count: 0.110552763819; datetime (day): Sat; datetime (hours): 00:00" role="graphics-symbol" aria-roledescription="circle" transform="translate(278.57142857142856,10.416666666666686)" d="M6.661994406184213,0A6.661994406184213,6.661994406184213,0,1,1,-6.661994406184213,0A6.661994406184213,6.661994406184213,0,1,1,6.661994406184213,0" fill="black" stroke-width="2"/><path aria-label="Mean of dead_count: 0.0432276657061; datetime (day): Sun; datetime (hours): 12:00" role="graphics-symbol" aria-roledescription="circle" transform="translate(21.428571428571445,260.4166666666667)" d="M4.165818589368358,0A4.165818589368358,4.165818589368358,0,1,1,-4.165818589368358,0A4.165818589368358,4.165818589368358,0,1,1,4.165818589368358,0" fill="black" stroke-width="2"/><path aria-label="Mean of dead_count: 0.0413533834586; datetime (day): Sat; datetime (hours): 17:00" role="graphics-symbol" aria-roledescription="circle" transform="translate(278.57142857142856,364.5833333333333)" d="M4.074506225939736,0A4.074506225939736,4.074506225939736,0,1,1,-4.074506225939736,0A4.074506225939736,4.074506225939736,0,1,1,4.074506225939736,0" fill="black" stroke-width="2"/><path aria-label="Mean of dead_count: 0.0321199143469; datetime (day): Fri; datetime (hours): 12:00" role="graphics-symbol" aria-roledescription="circle" transform="translate(235.71428571428572,260.4166666666667)" d="M3.5909276143096633,0A3.5909276143096633,3.5909276143096633,0,1,1,-3.5909276143096633,0A3.5909276143096633,3.5909276143096633,0,1,1,3.5909276143096633,0" fill="black" stroke-width="2"/><path aria-label="Mean of dead_count: 0.0494071146245; datetime (day): Sun; datetime (hours): 19:00" role="graphics-symbol" aria-roledescription="circle" transform="translate(21.428571428571445,406.25)" d="M4.45363075531969,0A4.45363075531969,4.45363075531969,0,1,1,-4.45363075531969,0A4.45363075531969,4.45363075531969,0,1,1,4.45363075531969,0" fill="black" stroke-width="2"/><path aria-label="Mean of dead_count: 0.0539419087137; datetime (day): Fri; datetime (hours): 18:00" role="graphics-symbol" aria-roledescription="circle" transform="translate(235.71428571428572,385.4166666666667)" d="M4.653531053541552,0A4.653531053541552,4.653531053541552,0,1,1,-4.653531053541552,0A4.653531053541552,4.653531053541552,0,1,1,4.653531053541552,0" fill="black" stroke-width="2"/><path aria-label="Mean of dead_count: 0.0821917808219; datetime (day): Sat; datetime (hours): 09:00" role="graphics-symbol" aria-roledescription="circle" transform="translate(278.57142857142856,197.91666666666669)" d="M5.744254281525726,0A5.744254281525726,5.744254281525726,0,1,1,-5.744254281525726,0A5.744254281525726,5.744254281525726,0,1,1,5.744254281525726,0" fill="black" stroke-width="2"/><path aria-label="Mean of dead_count: 0.0589285714286; datetime (day): Thu; datetime (hours): 20:00" role="graphics-symbol" aria-roledescription="circle" transform="translate(192.85714285714286,427.0833333333333)" d="M4.863875142717057,0A4.863875142717057,4.863875142717057,0,1,1,-4.863875142717057,0A4.863875142717057,4.863875142717057,0,1,1,4.863875142717057,0" fill="black" stroke-width="2"/><path aria-label="Mean of dead_count: 0.0225988700565; datetime (day): Thu; datetime (hours): 08:00" role="graphics-symbol" aria-roledescription="circle" transform="translate(192.85714285714286,177.08333333333334)" d="M3.012054487962832,0A3.012054487962832,3.012054487962832,0,1,1,-3.012054487962832,0A3.012054487962832,3.012054487962832,0,1,1,3.012054487962832,0" fill="black" stroke-width="2"/><path aria-label="Mean of dead_count: 0.133802816901; datetime (day): Sun; datetime (hours): 05:00" role="graphics-symbol" aria-roledescription="circle" transform="translate(21.428571428571445,114.58333333333334)" d="M7.329124342178811,0A7.329124342178811,7.329124342178811,0,1,1,-7.329124342178811,0A7.329124342178811,7.329124342178811,0,1,1,7.329124342178811,0" fill="black" stroke-width="2"/><path aria-label="Mean of dead_count: 0.0851063829787; datetime (day): Mon; datetime (hours): 23:00" role="graphics-symbol" aria-roledescription="circle" transform="translate(64.2857142857143,489.5833333333333)" d="M5.845215512483758,0A5.845215512483758,5.845215512483758,0,1,1,-5.845215512483758,0A5.845215512483758,5.845215512483758,0,1,1,5.845215512483758,0" fill="black" stroke-width="2"/><path aria-label="Mean of dead_count: 0.126582278481; datetime (day): Fri; datetime (hours): 03:00" role="graphics-symbol" aria-roledescription="circle" transform="translate(235.71428571428572,72.91666666666669)" d="M7.128627404867885,0A7.128627404867885,7.128627404867885,0,1,1,-7.128627404867885,0A7.128627404867885,7.128627404867885,0,1,1,7.128627404867885,0" fill="black" stroke-width="2"/><path aria-label="Mean of dead_count: 0.0220750551876; datetime (day): Fri; datetime (hours): 09:00" role="graphics-symbol" aria-roledescription="circle" transform="translate(235.71428571428572,197.91666666666669)" d="M2.976941911901738,0A2.976941911901738,2.976941911901738,0,1,1,-2.976941911901738,0A2.976941911901738,2.976941911901738,0,1,1,2.976941911901738,0" fill="black" stroke-width="2"/><path aria-label="Mean of dead_count: 0.0553278688525; datetime (day): Sun; datetime (hours): 20:00" role="graphics-symbol" aria-roledescription="circle" transform="translate(21.428571428571445,427.0833333333333)" d="M4.712934809895954,0A4.712934809895954,4.712934809895954,0,1,1,-4.712934809895954,0A4.712934809895954,4.712934809895954,0,1,1,4.712934809895954,0" fill="black" stroke-width="2"/><path aria-label="Mean of dead_count: 0.0283185840708; datetime (day): Fri; datetime (hours): 16:00" role="graphics-symbol" aria-roledescription="circle" transform="translate(235.71428571428572,343.75)" d="M3.3717489342774374,0A3.3717489342774374,3.3717489342774374,0,1,1,-3.3717489342774374,0A3.3717489342774374,3.3717489342774374,0,1,1,3.3717489342774374,0" fill="black" stroke-width="2"/><path aria-label="Mean of dead_count: 0.0400890868597; datetime (day): Sun; datetime (hours): 15:00" role="graphics-symbol" aria-roledescription="circle" transform="translate(21.428571428571445,322.9166666666667)" d="M4.01173782746118,0A4.01173782746118,4.01173782746118,0,1,1,-4.01173782746118,0A4.01173782746118,4.01173782746118,0,1,1,4.01173782746118,0" fill="black" stroke-width="2"/><path aria-label="Mean of dead_count: 0.0426470588235; datetime (day): Thu; datetime (hours): 19:00" role="graphics-symbol" aria-roledescription="circle" transform="translate(192.85714285714286,406.25)" d="M4.1377476822968475,0A4.1377476822968475,4.1377476822968475,0,1,1,-4.1377476822968475,0A4.1377476822968475,4.1377476822968475,0,1,1,4.1377476822968475,0" fill="black" stroke-width="2"/><path aria-label="Mean of dead_count: 0.0334645669291; datetime (day): Fri; datetime (hours): 14:00" role="graphics-symbol" aria-roledescription="circle" transform="translate(235.71428571428572,302.0833333333333)" d="M3.6653214298090604,0A3.6653214298090604,3.6653214298090604,0,1,1,-3.6653214298090604,0A3.6653214298090604,3.6653214298090604,0,1,1,3.6653214298090604,0" fill="black" stroke-width="2"/><path aria-label="Mean of dead_count: 0.0472222222222; datetime (day): Thu; datetime (hours): 07:00" role="graphics-symbol" aria-roledescription="circle" transform="translate(192.85714285714286,156.25)" d="M4.3540425792140764,0A4.3540425792140764,4.3540425792140764,0,1,1,-4.3540425792140764,0A4.3540425792140764,4.3540425792140764,0,1,1,4.3540425792140764,0" fill="black" stroke-width="2"/><path aria-label="Mean of dead_count: 0.126373626374; datetime (day): Thu; datetime (hours): 01:00" role="graphics-symbol" aria-roledescription="circle" transform="translate(192.85714285714286,31.250000000000018)" d="M7.122749739387389,0A7.122749739387389,7.122749739387389,0,1,1,-7.122749739387389,0A7.122749739387389,7.122749739387389,0,1,1,7.122749739387389,0" fill="black" stroke-width="2"/><path aria-label="Mean of dead_count: 0.0574886535552; datetime (day): Fri; datetime (hours): 19:00" role="graphics-symbol" aria-roledescription="circle" transform="translate(235.71428571428572,406.25)" d="M4.8040833093541995,0A4.8040833093541995,4.8040833093541995,0,1,1,-4.8040833093541995,0A4.8040833093541995,4.8040833093541995,0,1,1,4.8040833093541995,0" fill="black" stroke-width="2"/><path aria-label="Mean of dead_count: 0.0191570881226; datetime (day): Tue; datetime (hours): 15:00" role="graphics-symbol" aria-roledescription="circle" transform="translate(107.14285714285715,322.9166666666667)" d="M2.7732192745379947,0A2.7732192745379947,2.7732192745379947,0,1,1,-2.7732192745379947,0A2.7732192745379947,2.7732192745379947,0,1,1,2.7732192745379947,0" fill="black" stroke-width="2"/><path aria-label="Mean of dead_count: 0.0407407407407; datetime (day): Fri; datetime (hours): 15:00" role="graphics-symbol" aria-roledescription="circle" transform="translate(235.71428571428572,322.9166666666667)" d="M4.044212079131876,0A4.044212079131876,4.044212079131876,0,1,1,-4.044212079131876,0A4.044212079131876,4.044212079131876,0,1,1,4.044212079131876,0" fill="black" stroke-width="2"/><path aria-label="Mean of dead_count: 0.0963855421687; datetime (day): Wed; datetime (hours): 03:00" role="graphics-symbol" aria-roledescription="circle" transform="translate(150,72.91666666666669)" d="M6.22050163825165,0A6.22050163825165,6.22050163825165,0,1,1,-6.22050163825165,0A6.22050163825165,6.22050163825165,0,1,1,6.22050163825165,0" fill="black" stroke-width="2"/><path aria-label="Mean of dead_count: 0.0317796610169; datetime (day): Thu; datetime (hours): 13:00" role="graphics-symbol" aria-roledescription="circle" transform="translate(192.85714285714286,281.25)" d="M3.5718572319355384,0A3.5718572319355384,3.5718572319355384,0,1,1,-3.5718572319355384,0A3.5718572319355384,3.5718572319355384,0,1,1,3.5718572319355384,0" fill="black" stroke-width="2"/><path aria-label="Mean of dead_count: 0.0299625468165; datetime (day): Wed; datetime (hours): 14:00" role="graphics-symbol" aria-roledescription="circle" transform="translate(150,302.0833333333333)" d="M3.468237456941142,0A3.468237456941142,3.468237456941142,0,1,1,-3.468237456941142,0A3.468237456941142,3.468237456941142,0,1,1,3.468237456941142,0" fill="black" stroke-width="2"/><path aria-label="Mean of dead_count: 0.0326530612245; datetime (day): Mon; datetime (hours): 15:00" role="graphics-symbol" aria-roledescription="circle" transform="translate(64.2857142857143,322.9166666666667)" d="M3.6206072173182653,0A3.6206072173182653,3.6206072173182653,0,1,1,-3.6206072173182653,0A3.6206072173182653,3.6206072173182653,0,1,1,3.6206072173182653,0" fill="black" stroke-width="2"/><path aria-label="Mean of dead_count: 0.0392561983471; datetime (day): Sun; datetime (hours): 16:00" role="graphics-symbol" aria-roledescription="circle" transform="translate(21.428571428571445,343.75)" d="M3.9698452814749174,0A3.9698452814749174,3.9698452814749174,0,1,1,-3.9698452814749174,0A3.9698452814749174,3.9698452814749174,0,1,1,3.9698452814749174,0" fill="black" stroke-width="2"/><path aria-label="Mean of dead_count: 0.0374639769452; datetime (day): Mon; datetime (hours): 07:00" role="graphics-symbol" aria-roledescription="circle" transform="translate(64.2857142857143,156.25)" d="M3.8781660507156475,0A3.8781660507156475,3.8781660507156475,0,1,1,-3.8781660507156475,0A3.8781660507156475,3.8781660507156475,0,1,1,3.8781660507156475,0" fill="black" stroke-width="2"/><path aria-label="Mean of dead_count: 0.0348162475822; datetime (day): Wed; datetime (hours): 13:00" role="graphics-symbol" aria-roledescription="circle" transform="translate(150,281.25)" d="M3.7386124035433888,0A3.7386124035433888,3.7386124035433888,0,1,1,-3.7386124035433888,0A3.7386124035433888,3.7386124035433888,0,1,1,3.7386124035433888,0" fill="black" stroke-width="2"/><path aria-label="Mean of dead_count: 0.0416666666667; datetime (day): Wed; datetime (hours): 12:00" role="graphics-symbol" aria-roledescription="circle" transform="translate(150,260.4166666666667)" d="M4.089910841284339,0A4.089910841284339,4.089910841284339,0,1,1,-4.089910841284339,0A4.089910841284339,4.089910841284339,0,1,1,4.089910841284339,0" fill="black" stroke-width="2"/><path aria-label="Mean of dead_count: 0.0860655737705; datetime (day): Sun; datetime (hours): 01:00" role="graphics-symbol" aria-roledescription="circle" transform="translate(21.428571428571445,31.250000000000018)" d="M5.878062448277077,0A5.878062448277077,5.878062448277077,0,1,1,-5.878062448277077,0A5.878062448277077,5.878062448277077,0,1,1,5.878062448277077,0" fill="black" stroke-width="2"/><path aria-label="Mean of dead_count: 0.025462962963; datetime (day): Sun; datetime (hours): 14:00" role="graphics-symbol" aria-roledescription="circle" transform="translate(21.428571428571445,302.0833333333333)" d="M3.197230377705461,0A3.197230377705461,3.197230377705461,0,1,1,-3.197230377705461,0A3.197230377705461,3.197230377705461,0,1,1,3.197230377705461,0" fill="black" stroke-width="2"/><path aria-label="Mean of dead_count: 0.0479616306954; datetime (day): Mon; datetime (hours): 11:00" role="graphics-symbol" aria-roledescription="circle" transform="translate(64.2857142857143,239.58333333333334)" d="M4.387998109907605,0A4.387998109907605,4.387998109907605,0,1,1,-4.387998109907605,0A4.387998109907605,4.387998109907605,0,1,1,4.387998109907605,0" fill="black" stroke-width="2"/><path aria-label="Mean of dead_count: 0.0381165919283; datetime (day): Thu; datetime (hours): 10:00" role="graphics-symbol" aria-roledescription="circle" transform="translate(192.85714285714286,218.75)" d="M3.9117986531318576,0A3.9117986531318576,3.9117986531318576,0,1,1,-3.9117986531318576,0A3.9117986531318576,3.9117986531318576,0,1,1,3.9117986531318576,0" fill="black" stroke-width="2"/><path aria-label="Mean of dead_count: 0.0539956803456; datetime (day): Mon; datetime (hours): 14:00" role="graphics-symbol" aria-roledescription="circle" transform="translate(64.2857142857143,302.0833333333333)" d="M4.655849896499285,0A4.655849896499285,4.655849896499285,0,1,1,-4.655849896499285,0A4.655849896499285,4.655849896499285,0,1,1,4.655849896499285,0" fill="black" stroke-width="2"/><path aria-label="Mean of dead_count: 0.0915254237288; datetime (day): Fri; datetime (hours): 00:00" role="graphics-symbol" aria-roledescription="circle" transform="translate(235.71428571428572,10.416666666666686)" d="M6.061642728316394,0A6.061642728316394,6.061642728316394,0,1,1,-6.061642728316394,0A6.061642728316394,6.061642728316394,0,1,1,6.061642728316394,0" fill="black" stroke-width="2"/><path aria-label="Mean of dead_count: 0.0505780346821; datetime (day): Tue; datetime (hours): 19:00" role="graphics-symbol" aria-roledescription="circle" transform="translate(107.14285714285715,406.25)" d="M4.506095964041787,0A4.506095964041787,4.506095964041787,0,1,1,-4.506095964041787,0A4.506095964041787,4.506095964041787,0,1,1,4.506095964041787,0" fill="black" stroke-width="2"/><path aria-label="Mean of dead_count: 0.0395480225989; datetime (day): Mon; datetime (hours): 20:00" role="graphics-symbol" aria-roledescription="circle" transform="translate(64.2857142857143,427.0833333333333)" d="M3.984573555262824,0A3.984573555262824,3.984573555262824,0,1,1,-3.984573555262824,0A3.984573555262824,3.984573555262824,0,1,1,3.984573555262824,0" fill="black" stroke-width="2"/><path aria-label="Mean of dead_count: 0.046218487395; datetime (day): Sun; datetime (hours): 10:00" role="graphics-symbol" aria-roledescription="circle" transform="translate(21.428571428571445,218.75)" d="M4.307520227798681,0A4.307520227798681,4.307520227798681,0,1,1,-4.307520227798681,0A4.307520227798681,4.307520227798681,0,1,1,4.307520227798681,0" fill="black" stroke-width="2"/><path aria-label="Mean of dead_count: 0.0321361058601; datetime (day): Mon; datetime (hours): 16:00" role="graphics-symbol" aria-roledescription="circle" transform="translate(64.2857142857143,343.75)" d="M3.5918325860010234,0A3.5918325860010234,3.5918325860010234,0,1,1,-3.5918325860010234,0A3.5918325860010234,3.5918325860010234,0,1,1,3.5918325860010234,0" fill="black" stroke-width="2"/><path aria-label="Mean of dead_count: 0.0478087649402; datetime (day): Tue; datetime (hours): 16:00" role="graphics-symbol" aria-roledescription="circle" transform="translate(107.14285714285715,343.75)" d="M4.380999703364431,0A4.380999703364431,4.380999703364431,0,1,1,-4.380999703364431,0A4.380999703364431,4.380999703364431,0,1,1,4.380999703364431,0" fill="black" stroke-width="2"/><path aria-label="Mean of dead_count: 0.0204081632653; datetime (day): Thu; datetime (hours): 15:00" role="graphics-symbol" aria-roledescription="circle" transform="translate(192.85714285714286,322.9166666666667)" d="M2.8623413298924874,0A2.8623413298924874,2.8623413298924874,0,1,1,-2.8623413298924874,0A2.8623413298924874,2.8623413298924874,0,1,1,2.8623413298924874,0" fill="black" stroke-width="2"/><path aria-label="Mean of dead_count: 0.0307101727447; datetime (day): Wed; datetime (hours): 16:00" role="graphics-symbol" aria-roledescription="circle" transform="translate(150,343.75)" d="M3.511240613040257,0A3.511240613040257,3.511240613040257,0,1,1,-3.511240613040257,0A3.511240613040257,3.511240613040257,0,1,1,3.511240613040257,0" fill="black" stroke-width="2"/><path aria-label="Mean of dead_count: 0.0623556581986; datetime (day): Mon; datetime (hours): 21:00" role="graphics-symbol" aria-roledescription="circle" transform="translate(64.2857142857143,447.9166666666667)" d="M5.003309806803468,0A5.003309806803468,5.003309806803468,0,1,1,-5.003309806803468,0A5.003309806803468,5.003309806803468,0,1,1,5.003309806803468,0" fill="black" stroke-width="2"/><path aria-label="Mean of dead_count: 0.022633744856; datetime (day): Sat; datetime (hours): 15:00" role="graphics-symbol" aria-roledescription="circle" transform="translate(278.57142857142856,322.9166666666667)" d="M3.014377708121543,0A3.014377708121543,3.014377708121543,0,1,1,-3.014377708121543,0A3.014377708121543,3.014377708121543,0,1,1,3.014377708121543,0" fill="black" stroke-width="2"/><path aria-label="Mean of dead_count: 0.0253164556962; datetime (day): Wed; datetime (hours): 19:00" role="graphics-symbol" aria-roledescription="circle" transform="translate(150,406.25)" d="M3.1880190927105,0A3.1880190927105,3.1880190927105,0,1,1,-3.1880190927105,0A3.1880190927105,3.1880190927105,0,1,1,3.1880190927105,0" fill="black" stroke-width="2"/><path aria-label="Mean of dead_count: 0.0445434298441; datetime (day): Tue; datetime (hours): 21:00" role="graphics-symbol" aria-roledescription="circle" transform="translate(107.14285714285715,447.9166666666667)" d="M4.2287429700776356,0A4.2287429700776356,4.2287429700776356,0,1,1,-4.2287429700776356,0A4.2287429700776356,4.2287429700776356,0,1,1,4.2287429700776356,0" fill="black" stroke-width="2"/><path aria-label="Mean of dead_count: 0.0405405405405; datetime (day): Fri; datetime (hours): 21:00" role="graphics-symbol" aria-roledescription="circle" transform="translate(235.71428571428572,447.9166666666667)" d="M4.034263202858084,0A4.034263202858084,4.034263202858084,0,1,1,-4.034263202858084,0A4.034263202858084,4.034263202858084,0,1,1,4.034263202858084,0" fill="black" stroke-width="2"/><path aria-label="Mean of dead_count: 0.0389016018307; datetime (day): Fri; datetime (hours): 11:00" role="graphics-symbol" aria-roledescription="circle" transform="translate(235.71428571428572,239.58333333333334)" d="M3.951875041272066,0A3.951875041272066,3.951875041272066,0,1,1,-3.951875041272066,0A3.951875041272066,3.951875041272066,0,1,1,3.951875041272066,0" fill="black" stroke-width="2"/><path aria-label="Mean of dead_count: 0.0471698113208; datetime (day): Sat; datetime (hours): 13:00" role="graphics-symbol" aria-roledescription="circle" transform="translate(278.57142857142856,281.25)" d="M4.351625680565893,0A4.351625680565893,4.351625680565893,0,1,1,-4.351625680565893,0A4.351625680565893,4.351625680565893,0,1,1,4.351625680565893,0" fill="black" stroke-width="2"/><path aria-label="Mean of dead_count: 0.0365853658537; datetime (day): Thu; datetime (hours): 18:00" role="graphics-symbol" aria-roledescription="circle" transform="translate(192.85714285714286,385.4166666666667)" d="M3.8324205712342123,0A3.8324205712342123,3.8324205712342123,0,1,1,-3.8324205712342123,0A3.8324205712342123,3.8324205712342123,0,1,1,3.8324205712342123,0" fill="black" stroke-width="2"/><path aria-label="Mean of dead_count: 0.0328571428571; datetime (day): Tue; datetime (hours): 18:00" role="graphics-symbol" aria-roledescription="circle" transform="translate(107.14285714285715,385.4166666666667)" d="M3.6319039911574236,0A3.6319039911574236,3.6319039911574236,0,1,1,-3.6319039911574236,0A3.6319039911574236,3.6319039911574236,0,1,1,3.6319039911574236,0" fill="black" stroke-width="2"/><path aria-label="Mean of dead_count: 0.0267983074753; datetime (day): Wed; datetime (hours): 18:00" role="graphics-symbol" aria-roledescription="circle" transform="translate(150,385.4166666666667)" d="M3.279994718270101,0A3.279994718270101,3.279994718270101,0,1,1,-3.279994718270101,0A3.279994718270101,3.279994718270101,0,1,1,3.279994718270101,0" fill="black" stroke-width="2"/><path aria-label="Mean of dead_count: 0.0531400966184; datetime (day): Mon; datetime (hours): 12:00" role="graphics-symbol" aria-roledescription="circle" transform="translate(64.2857142857143,260.4166666666667)" d="M4.618815678381695,0A4.618815678381695,4.618815678381695,0,1,1,-4.618815678381695,0A4.618815678381695,4.618815678381695,0,1,1,4.618815678381695,0" fill="black" stroke-width="2"/><path aria-label="Mean of dead_count: 0.0696864111498; datetime (day): Wed; datetime (hours): 23:00" role="graphics-symbol" aria-roledescription="circle" transform="translate(150,489.5833333333333)" d="M5.289242890247766,0A5.289242890247766,5.289242890247766,0,1,1,-5.289242890247766,0A5.289242890247766,5.289242890247766,0,1,1,5.289242890247766,0" fill="black" stroke-width="2"/><path aria-label="Mean of dead_count: 0.0280561122244; datetime (day): Thu; datetime (hours): 14:00" role="graphics-symbol" aria-roledescription="circle" transform="translate(192.85714285714286,302.0833333333333)" d="M3.3560869689169466,0A3.3560869689169466,3.3560869689169466,0,1,1,-3.3560869689169466,0A3.3560869689169466,3.3560869689169466,0,1,1,3.3560869689169466,0" fill="black" stroke-width="2"/><path aria-label="Mean of dead_count: 0.031746031746; datetime (day): Sun; datetime (hours): 13:00" role="graphics-symbol" aria-roledescription="circle" transform="translate(21.428571428571445,281.25)" d="M3.5699668601535253,0A3.5699668601535253,3.5699668601535253,0,1,1,-3.5699668601535253,0A3.5699668601535253,3.5699668601535253,0,1,1,3.5699668601535253,0" fill="black" stroke-width="2"/><path aria-label="Mean of dead_count: 0.0334029227557; datetime (day): Thu; datetime (hours): 09:00" role="graphics-symbol" aria-roledescription="circle" transform="translate(192.85714285714286,197.91666666666669)" d="M3.661943978992142,0A3.661943978992142,3.661943978992142,0,1,1,-3.661943978992142,0A3.661943978992142,3.661943978992142,0,1,1,3.661943978992142,0" fill="black" stroke-width="2"/><path aria-label="Mean of dead_count: 0.0888324873096; datetime (day): Sun; datetime (hours): 22:00" role="graphics-symbol" aria-roledescription="circle" transform="translate(21.428571428571445,468.75)" d="M5.971801626670157,0A5.971801626670157,5.971801626670157,0,1,1,-5.971801626670157,0A5.971801626670157,5.971801626670157,0,1,1,5.971801626670157,0" fill="black" stroke-width="2"/><path aria-label="Mean of dead_count: 0.153846153846; datetime (day): Thu; datetime (hours): 02:00" role="graphics-symbol" aria-roledescription="circle" transform="translate(192.85714285714286,52.08333333333335)" d="M7.8589184669072605,0A7.8589184669072605,7.8589184669072605,0,1,1,-7.8589184669072605,0A7.8589184669072605,7.8589184669072605,0,1,1,7.8589184669072605,0" fill="black" stroke-width="2"/><path aria-label="Mean of dead_count: 0.0134228187919; datetime (day): Tue; datetime (hours): 08:00" role="graphics-symbol" aria-roledescription="circle" transform="translate(107.14285714285715,177.08333333333334)" d="M2.3213537376261564,0A2.3213537376261564,2.3213537376261564,0,1,1,-2.3213537376261564,0A2.3213537376261564,2.3213537376261564,0,1,1,2.3213537376261564,0" fill="black" stroke-width="2"/><path aria-label="Mean of dead_count: 0.0419161676647; datetime (day): Sun; datetime (hours): 18:00" role="graphics-symbol" aria-roledescription="circle" transform="translate(21.428571428571445,385.4166666666667)" d="M4.102137806802741,0A4.102137806802741,4.102137806802741,0,1,1,-4.102137806802741,0A4.102137806802741,4.102137806802741,0,1,1,4.102137806802741,0" fill="black" stroke-width="2"/><path aria-label="Mean of dead_count: 0.0480769230769; datetime (day): Sat; datetime (hours): 11:00" role="graphics-symbol" aria-roledescription="circle" transform="translate(278.57142857142856,239.58333333333334)" d="M4.393268980408267,0A4.393268980408267,4.393268980408267,0,1,1,-4.393268980408267,0A4.393268980408267,4.393268980408267,0,1,1,4.393268980408267,0" fill="black" stroke-width="2"/><path aria-label="Mean of dead_count: 0.123456790123; datetime (day): Sat; datetime (hours): 05:00" role="graphics-symbol" aria-roledescription="circle" transform="translate(278.57142857142856,114.58333333333334)" d="M7.040069589229958,0A7.040069589229958,7.040069589229958,0,1,1,-7.040069589229958,0A7.040069589229958,7.040069589229958,0,1,1,7.040069589229958,0" fill="black" stroke-width="2"/><path aria-label="Mean of dead_count: 0.0512820512821; datetime (day): Tue; datetime (hours): 17:00" role="graphics-symbol" aria-roledescription="circle" transform="translate(107.14285714285715,364.5833333333333)" d="M4.537348692408227,0A4.537348692408227,4.537348692408227,0,1,1,-4.537348692408227,0A4.537348692408227,4.537348692408227,0,1,1,4.537348692408227,0" fill="black" stroke-width="2"/><path aria-label="Mean of dead_count: 0.0554323725055; datetime (day): Sat; datetime (hours): 21:00" role="graphics-symbol" aria-roledescription="circle" transform="translate(278.57142857142856,447.9166666666667)" d="M4.717383621730854,0A4.717383621730854,4.717383621730854,0,1,1,-4.717383621730854,0A4.717383621730854,4.717383621730854,0,1,1,4.717383621730854,0" fill="black" stroke-width="2"/><path aria-label="Mean of dead_count: 0.0614406779661; datetime (day): Thu; datetime (hours): 21:00" role="graphics-symbol" aria-roledescription="circle" transform="translate(192.85714285714286,447.9166666666667)" d="M4.966465936488953,0A4.966465936488953,4.966465936488953,0,1,1,-4.966465936488953,0A4.966465936488953,4.966465936488953,0,1,1,4.966465936488953,0" fill="black" stroke-width="2"/><path aria-label="Mean of dead_count: 0.0218253968254; datetime (day): Mon; datetime (hours): 08:00" role="graphics-symbol" aria-roledescription="circle" transform="translate(64.2857142857143,177.08333333333334)" d="M2.960060147283102,0A2.960060147283102,2.960060147283102,0,1,1,-2.960060147283102,0A2.960060147283102,2.960060147283102,0,1,1,2.960060147283102,0" fill="black" stroke-width="2"/><path aria-label="Mean of dead_count: 0.036036036036; datetime (day): Tue; datetime (hours): 20:00" role="graphics-symbol" aria-roledescription="circle" transform="translate(107.14285714285715,427.0833333333333)" d="M3.803539823776415,0A3.803539823776415,3.803539823776415,0,1,1,-3.803539823776415,0A3.803539823776415,3.803539823776415,0,1,1,3.803539823776415,0" fill="black" stroke-width="2"/><path aria-label="Mean of dead_count: 0.0355140186916; datetime (day): Sat; datetime (hours): 16:00" role="graphics-symbol" aria-roledescription="circle" transform="translate(278.57142857142856,343.75)" d="M3.7758903225603837,0A3.7758903225603837,3.7758903225603837,0,1,1,-3.7758903225603837,0A3.7758903225603837,3.7758903225603837,0,1,1,3.7758903225603837,0" fill="black" stroke-width="2"/><path aria-label="Mean of dead_count: 0.0989583333333; datetime (day): Sat; datetime (hours): 22:00" role="graphics-symbol" aria-roledescription="circle" transform="translate(278.57142857142856,468.75)" d="M6.302975915226952,0A6.302975915226952,6.302975915226952,0,1,1,-6.302975915226952,0A6.302975915226952,6.302975915226952,0,1,1,6.302975915226952,0" fill="black" stroke-width="2"/><path aria-label="Mean of dead_count: 0.0291666666667; datetime (day): Sat; datetime (hours): 08:00" role="graphics-symbol" aria-roledescription="circle" transform="translate(278.57142857142856,177.08333333333334)" d="M3.4218649129909586,0A3.4218649129909586,3.4218649129909586,0,1,1,-3.4218649129909586,0A3.4218649129909586,3.4218649129909586,0,1,1,3.4218649129909586,0" fill="black" stroke-width="2"/><path aria-label="Mean of dead_count: 0.0612557427259; datetime (day): Mon; datetime (hours): 19:00" role="graphics-symbol" aria-roledescription="circle" transform="translate(64.2857142857143,406.25)" d="M4.958985820780581,0A4.958985820780581,4.958985820780581,0,1,1,-4.958985820780581,0A4.958985820780581,4.958985820780581,0,1,1,4.958985820780581,0" fill="black" stroke-width="2"/><path aria-label="Mean of dead_count: 0.0276008492569; datetime (day): Tue; datetime (hours): 13:00" role="graphics-symbol" aria-roledescription="circle" transform="translate(107.14285714285715,281.25)" d="M3.32874620313221,0A3.32874620313221,3.32874620313221,0,1,1,-3.32874620313221,0A3.32874620313221,3.32874620313221,0,1,1,3.32874620313221,0" fill="black" stroke-width="2"/><path aria-label="Mean of dead_count: 0.0304975922953; datetime (day): Fri; datetime (hours): 17:00" role="graphics-symbol" aria-roledescription="circle" transform="translate(235.71428571428572,364.5833333333333)" d="M3.499066840628943,0A3.499066840628943,3.499066840628943,0,1,1,-3.499066840628943,0A3.499066840628943,3.499066840628943,0,1,1,3.499066840628943,0" fill="black" stroke-width="2"/><path aria-label="Mean of dead_count: 0.108991825613; datetime (day): Sun; datetime (hours): 00:00" role="graphics-symbol" aria-roledescription="circle" transform="translate(21.428571428571445,10.416666666666686)" d="M6.614795541823903,0A6.614795541823903,6.614795541823903,0,1,1,-6.614795541823903,0A6.614795541823903,6.614795541823903,0,1,1,6.614795541823903,0" fill="black" stroke-width="2"/><path aria-label="Mean of dead_count: 0.15625; datetime (day): Thu; datetime (hours): 03:00" role="graphics-symbol" aria-roledescription="circle" transform="translate(192.85714285714286,72.91666666666669)" d="M7.920078287883704,0A7.920078287883704,7.920078287883704,0,1,1,-7.920078287883704,0A7.920078287883704,7.920078287883704,0,1,1,7.920078287883704,0" fill="black" stroke-width="2"/><path aria-label="Mean of dead_count: 0.0371991247265; datetime (day): Thu; datetime (hours): 12:00" role="graphics-symbol" aria-roledescription="circle" transform="translate(192.85714285714286,260.4166666666667)" d="M3.8644333565390876,0A3.8644333565390876,3.8644333565390876,0,1,1,-3.8644333565390876,0A3.8644333565390876,3.8644333565390876,0,1,1,3.8644333565390876,0" fill="black" stroke-width="2"/><path aria-label="Mean of dead_count: 0.110294117647; datetime (day): Sat; datetime (hours): 01:00" role="graphics-symbol" aria-roledescription="circle" transform="translate(278.57142857142856,31.250000000000018)" d="M6.654196734279727,0A6.654196734279727,6.654196734279727,0,1,1,-6.654196734279727,0A6.654196734279727,6.654196734279727,0,1,1,6.654196734279727,0" fill="black" stroke-width="2"/><path aria-label="Mean of dead_count: 0.034375; datetime (day): Mon; datetime (hours): 17:00" role="graphics-symbol" aria-roledescription="circle" transform="translate(64.2857142857143,364.5833333333333)" d="M3.71484600205251,0A3.71484600205251,3.71484600205251,0,1,1,-3.71484600205251,0A3.71484600205251,3.71484600205251,0,1,1,3.71484600205251,0" fill="black" stroke-width="2"/><path aria-label="Mean of dead_count: 0.0643274853801; datetime (day): Sat; datetime (hours): 19:00" role="graphics-symbol" aria-roledescription="circle" transform="translate(278.57142857142856,406.25)" d="M5.081802105914608,0A5.081802105914608,5.081802105914608,0,1,1,-5.081802105914608,0A5.081802105914608,5.081802105914608,0,1,1,5.081802105914608,0" fill="black" stroke-width="2"/><path aria-label="Mean of dead_count: 0.0229357798165; datetime (day): Tue; datetime (hours): 11:00" role="graphics-symbol" aria-roledescription="circle" transform="translate(107.14285714285715,239.58333333333334)" d="M3.0344236660577377,0A3.0344236660577377,3.0344236660577377,0,1,1,-3.0344236660577377,0A3.0344236660577377,3.0344236660577377,0,1,1,3.0344236660577377,0" fill="black" stroke-width="2"/><path aria-label="Mean of dead_count: 0.031512605042; datetime (day): Mon; datetime (hours): 13:00" role="graphics-symbol" aria-roledescription="circle" transform="translate(64.2857142857143,281.25)" d="M3.5568177662663962,0A3.5568177662663962,3.5568177662663962,0,1,1,-3.5568177662663962,0A3.5568177662663962,3.5568177662663962,0,1,1,3.5568177662663962,0" fill="black" stroke-width="2"/><path aria-label="Mean of dead_count: 0.0606694560669; datetime (day): Sat; datetime (hours): 20:00" role="graphics-symbol" aria-roledescription="circle" transform="translate(278.57142857142856,427.0833333333333)" d="M4.935197214713628,0A4.935197214713628,4.935197214713628,0,1,1,-4.935197214713628,0A4.935197214713628,4.935197214713628,0,1,1,4.935197214713628,0" fill="black" stroke-width="2"/><path aria-label="Mean of dead_count: 0.0740740740741; datetime (day): Sat; datetime (hours): 18:00" role="graphics-symbol" aria-roledescription="circle" transform="translate(278.57142857142856,385.4166666666667)" d="M5.453214455045784,0A5.453214455045784,5.453214455045784,0,1,1,-5.453214455045784,0A5.453214455045784,5.453214455045784,0,1,1,5.453214455045784,0" fill="black" stroke-width="2"/><path aria-label="Mean of dead_count: 0.031007751938; datetime (day): Wed; datetime (hours): 11:00" role="graphics-symbol" aria-roledescription="circle" transform="translate(150,239.58333333333334)" d="M3.5282114253639842,0A3.5282114253639842,3.5282114253639842,0,1,1,-3.5282114253639842,0A3.5282114253639842,3.5282114253639842,0,1,1,3.5282114253639842,0" fill="black" stroke-width="2"/><path aria-label="Mean of dead_count: 0.146496815287; datetime (day): Sat; datetime (hours): 03:00" role="graphics-symbol" aria-roledescription="circle" transform="translate(278.57142857142856,72.91666666666669)" d="M7.668908450338896,0A7.668908450338896,7.668908450338896,0,1,1,-7.668908450338896,0A7.668908450338896,7.668908450338896,0,1,1,7.668908450338896,0" fill="black" stroke-width="2"/><path aria-label="Mean of dead_count: 0.0319634703196; datetime (day): Sat; datetime (hours): 12:00" role="graphics-symbol" aria-roledescription="circle" transform="translate(278.57142857142856,260.4166666666667)" d="M3.582171910663096,0A3.582171910663096,3.582171910663096,0,1,1,-3.582171910663096,0A3.582171910663096,3.582171910663096,0,1,1,3.582171910663096,0" fill="black" stroke-width="2"/><path aria-label="Mean of dead_count: 0.0280811232449; datetime (day): Wed; datetime (hours): 17:00" role="graphics-symbol" aria-roledescription="circle" transform="translate(150,364.5833333333333)" d="M3.357582551419398,0A3.357582551419398,3.357582551419398,0,1,1,-3.357582551419398,0A3.357582551419398,3.357582551419398,0,1,1,3.357582551419398,0" fill="black" stroke-width="2"/><path aria-label="Mean of dead_count: 0.0555555555556; datetime (day): Sun; datetime (hours): 11:00" role="graphics-symbol" aria-roledescription="circle" transform="translate(21.428571428571445,239.58333333333334)" d="M4.722622250354163,0A4.722622250354163,4.722622250354163,0,1,1,-4.722622250354163,0A4.722622250354163,4.722622250354163,0,1,1,4.722622250354163,0" fill="black" stroke-width="2"/><path aria-label="Mean of dead_count: 0.135245901639; datetime (day): Wed; datetime (hours): 00:00" role="graphics-symbol" aria-roledescription="circle" transform="translate(150,10.416666666666686)" d="M7.368541235785473,0A7.368541235785473,7.368541235785473,0,1,1,-7.368541235785473,0A7.368541235785473,7.368541235785473,0,1,1,7.368541235785473,0" fill="black" stroke-width="2"/><path aria-label="Mean of dead_count: 0.0822784810127; datetime (day): Thu; datetime (hours): 06:00" role="graphics-symbol" aria-roledescription="circle" transform="translate(192.85714285714286,135.41666666666669)" d="M5.747283152962948,0A5.747283152962948,5.747283152962948,0,1,1,-5.747283152962948,0A5.747283152962948,5.747283152962948,0,1,1,5.747283152962948,0" fill="black" stroke-width="2"/><path aria-label="Mean of dead_count: 0.1; datetime (day): Sun; datetime (hours): 03:00" role="graphics-symbol" aria-roledescription="circle" transform="translate(21.428571428571445,72.91666666666669)" d="M6.336062630306964,0A6.336062630306964,6.336062630306964,0,1,1,-6.336062630306964,0A6.336062630306964,6.336062630306964,0,1,1,6.336062630306964,0" fill="black" stroke-width="2"/><path aria-label="Mean of dead_count: 0.120879120879; datetime (day): Sun; datetime (hours): 02:00" role="graphics-symbol" aria-roledescription="circle" transform="translate(21.428571428571445,52.08333333333335)" d="M6.96618667034071,0A6.96618667034071,6.96618667034071,0,1,1,-6.96618667034071,0A6.96618667034071,6.96618667034071,0,1,1,6.96618667034071,0" fill="black" stroke-width="2"/><path aria-label="Mean of dead_count: 0.0824742268041; datetime (day): Mon; datetime (hours): 04:00" role="graphics-symbol" aria-roledescription="circle" transform="translate(64.2857142857143,93.75000000000001)" d="M5.754115669526161,0A5.754115669526161,5.754115669526161,0,1,1,-5.754115669526161,0A5.754115669526161,5.754115669526161,0,1,1,5.754115669526161,0" fill="black" stroke-width="2"/><path aria-label="Mean of dead_count: 0.0699300699301; datetime (day): Thu; datetime (hours): 23:00" role="graphics-symbol" aria-roledescription="circle" transform="translate(192.85714285714286,489.5833333333333)" d="M5.29848174949871,0A5.29848174949871,5.29848174949871,0,1,1,-5.29848174949871,0A5.29848174949871,5.29848174949871,0,1,1,5.29848174949871,0" fill="black" stroke-width="2"/><path aria-label="Mean of dead_count: 0.147435897436; datetime (day): Sat; datetime (hours): 06:00" role="graphics-symbol" aria-roledescription="circle" transform="translate(278.57142857142856,135.41666666666669)" d="M7.693449020103642,0A7.693449020103642,7.693449020103642,0,1,1,-7.693449020103642,0A7.693449020103642,7.693449020103642,0,1,1,7.693449020103642,0" fill="black" stroke-width="2"/><path aria-label="Mean of dead_count: 0.0551470588235; datetime (day): Sun; datetime (hours): 23:00" role="graphics-symbol" aria-roledescription="circle" transform="translate(21.428571428571445,489.5833333333333)" d="M4.7052276341585735,0A4.7052276341585735,4.7052276341585735,0,1,1,-4.7052276341585735,0A4.7052276341585735,4.7052276341585735,0,1,1,4.7052276341585735,0" fill="black" stroke-width="2"/><path aria-label="Mean of dead_count: 0.169014084507; datetime (day): Tue; datetime (hours): 03:00" role="graphics-symbol" aria-roledescription="circle" transform="translate(107.14285714285715,72.91666666666669)" d="M8.23722464424323,0A8.23722464424323,8.23722464424323,0,1,1,-8.23722464424323,0A8.23722464424323,8.23722464424323,0,1,1,8.23722464424323,0" fill="black" stroke-width="2"/><path aria-label="Mean of dead_count: 0.0723684210526; datetime (day): Sun; datetime (hours): 21:00" role="graphics-symbol" aria-roledescription="circle" transform="translate(21.428571428571445,447.9166666666667)" d="M5.390065094610444,0A5.390065094610444,5.390065094610444,0,1,1,-5.390065094610444,0A5.390065094610444,5.390065094610444,0,1,1,5.390065094610444,0" fill="black" stroke-width="2"/><path aria-label="Mean of dead_count: 0.0281030444965; datetime (day): Fri; datetime (hours): 10:00" role="graphics-symbol" aria-roledescription="circle" transform="translate(235.71428571428572,218.75)" d="M3.3588928275868994,0A3.3588928275868994,3.3588928275868994,0,1,1,-3.3588928275868994,0A3.3588928275868994,3.3588928275868994,0,1,1,3.3588928275868994,0" fill="black" stroke-width="2"/><path aria-label="Mean of dead_count: 0.191489361702; datetime (day): Wed; datetime (hours): 02:00" role="graphics-symbol" aria-roledescription="circle" transform="translate(150,52.08333333333335)" d="M8.767823268725637,0A8.767823268725637,8.767823268725637,0,1,1,-8.767823268725637,0A8.767823268725637,8.767823268725637,0,1,1,8.767823268725637,0" fill="black" stroke-width="2"/><path aria-label="Mean of dead_count: 0.0520833333333; datetime (day): Sun; datetime (hours): 08:00" role="graphics-symbol" aria-roledescription="circle" transform="translate(21.428571428571445,177.08333333333334)" d="M4.5726593315125665,0A4.5726593315125665,4.5726593315125665,0,1,1,-4.5726593315125665,0A4.5726593315125665,4.5726593315125665,0,1,1,4.5726593315125665,0" fill="black" stroke-width="2"/><path aria-label="Mean of dead_count: 0.0566037735849; datetime (day): Wed; datetime (hours): 21:00" role="graphics-symbol" aria-roledescription="circle" transform="translate(150,447.9166666666667)" d="M4.766967094129419,0A4.766967094129419,4.766967094129419,0,1,1,-4.766967094129419,0A4.766967094129419,4.766967094129419,0,1,1,4.766967094129419,0" fill="black" stroke-width="2"/><path aria-label="Mean of dead_count: 0.0403458213256; datetime (day): Mon; datetime (hours): 18:00" role="graphics-symbol" aria-roledescription="circle" transform="translate(64.2857142857143,385.4166666666667)" d="M4.0245631089877545,0A4.0245631089877545,4.0245631089877545,0,1,1,-4.0245631089877545,0A4.0245631089877545,4.0245631089877545,0,1,1,4.0245631089877545,0" fill="black" stroke-width="2"/><path aria-label="Mean of dead_count: 0.0294736842105; datetime (day): Wed; datetime (hours): 09:00" role="graphics-symbol" aria-roledescription="circle" transform="translate(150,197.91666666666669)" d="M3.4398275818859667,0A3.4398275818859667,3.4398275818859667,0,1,1,-3.4398275818859667,0A3.4398275818859667,3.4398275818859667,0,1,1,3.4398275818859667,0" fill="black" stroke-width="2"/><path aria-label="Mean of dead_count: 0.101744186047; datetime (day): Sat; datetime (hours): 23:00" role="graphics-symbol" aria-roledescription="circle" transform="translate(278.57142857142856,489.5833333333333)" d="M6.391080125644939,0A6.391080125644939,6.391080125644939,0,1,1,-6.391080125644939,0A6.391080125644939,6.391080125644939,0,1,1,6.391080125644939,0" fill="black" stroke-width="2"/><path aria-label="Mean of dead_count: 0.0443037974684; datetime (day): Sat; datetime (hours): 10:00" role="graphics-symbol" aria-roledescription="circle" transform="translate(278.57142857142856,218.75)" d="M4.217352847118876,0A4.217352847118876,4.217352847118876,0,1,1,-4.217352847118876,0A4.217352847118876,4.217352847118876,0,1,1,4.217352847118876,0" fill="black" stroke-width="2"/><path aria-label="Mean of dead_count: 0.0296296296296; datetime (day): Mon; datetime (hours): 10:00" role="graphics-symbol" aria-roledescription="circle" transform="translate(64.2857142857143,218.75)" d="M3.4489156494597117,0A3.4489156494597117,3.4489156494597117,0,1,1,-3.4489156494597117,0A3.4489156494597117,3.4489156494597117,0,1,1,3.4489156494597117,0" fill="black" stroke-width="2"/><path aria-label="Mean of dead_count: 0.0564102564103; datetime (day): Tue; datetime (hours): 22:00" role="graphics-symbol" aria-roledescription="circle" transform="translate(107.14285714285715,468.75)" d="M4.758811455831018,0A4.758811455831018,4.758811455831018,0,1,1,-4.758811455831018,0A4.758811455831018,4.758811455831018,0,1,1,4.758811455831018,0" fill="black" stroke-width="2"/><path aria-label="Mean of dead_count: 0.142857142857; datetime (day): Sat; datetime (hours): 04:00" role="graphics-symbol" aria-roledescription="circle" transform="translate(278.57142857142856,93.75000000000001)" d="M7.573043326277412,0A7.573043326277412,7.573043326277412,0,1,1,-7.573043326277412,0A7.573043326277412,7.573043326277412,0,1,1,7.573043326277412,0" fill="black" stroke-width="2"/><path aria-label="Mean of dead_count: 0.0580808080808; datetime (day): Mon; datetime (hours): 22:00" role="graphics-symbol" aria-roledescription="circle" transform="translate(64.2857142857143,468.75)" d="M4.828761845580863,0A4.828761845580863,4.828761845580863,0,1,1,-4.828761845580863,0A4.828761845580863,4.828761845580863,0,1,1,4.828761845580863,0" fill="black" stroke-width="2"/><path aria-label="Mean of dead_count: 0.0556745182013; datetime (day): Tue; datetime (hours): 12:00" role="graphics-symbol" aria-roledescription="circle" transform="translate(107.14285714285715,260.4166666666667)" d="M4.727675887166998,0A4.727675887166998,4.727675887166998,0,1,1,-4.727675887166998,0A4.727675887166998,4.727675887166998,0,1,1,4.727675887166998,0" fill="black" stroke-width="2"/><path aria-label="Mean of dead_count: 0.130434782609; datetime (day): Tue; datetime (hours): 04:00" role="graphics-symbol" aria-roledescription="circle" transform="translate(107.14285714285715,93.75000000000001)" d="M7.236293459257009,0A7.236293459257009,7.236293459257009,0,1,1,-7.236293459257009,0A7.236293459257009,7.236293459257009,0,1,1,7.236293459257009,0" fill="black" stroke-width="2"/><path aria-label="Mean of dead_count: 0.134615384615; datetime (day): Thu; datetime (hours): 00:00" role="graphics-symbol" aria-roledescription="circle" transform="translate(192.85714285714286,10.416666666666686)" d="M7.351345083439424,0A7.351345083439424,7.351345083439424,0,1,1,-7.351345083439424,0A7.351345083439424,7.351345083439424,0,1,1,7.351345083439424,0" fill="black" stroke-width="2"/><path aria-label="Mean of dead_count: 0.0291438979964; datetime (day): Wed; datetime (hours): 08:00" role="graphics-symbol" aria-roledescription="circle" transform="translate(150,177.08333333333334)" d="M3.420529029702494,0A3.420529029702494,3.420529029702494,0,1,1,-3.420529029702494,0A3.420529029702494,3.420529029702494,0,1,1,3.420529029702494,0" fill="black" stroke-width="2"/><path aria-label="Mean of dead_count: 0.0719424460432; datetime (day): Sun; datetime (hours): 07:00" role="graphics-symbol" aria-roledescription="circle" transform="translate(21.428571428571445,156.25)" d="M5.374178180785324,0A5.374178180785324,5.374178180785324,0,1,1,-5.374178180785324,0A5.374178180785324,5.374178180785324,0,1,1,5.374178180785324,0" fill="black" stroke-width="2"/><path aria-label="Mean of dead_count: 0.0542857142857; datetime (day): Fri; datetime (hours): 23:00" role="graphics-symbol" aria-roledescription="circle" transform="translate(235.71428571428572,489.5833333333333)" d="M4.668337432559523,0A4.668337432559523,4.668337432559523,0,1,1,-4.668337432559523,0A4.668337432559523,4.668337432559523,0,1,1,4.668337432559523,0" fill="black" stroke-width="2"/><path aria-label="Mean of dead_count: 0.0289156626506; datetime (day): Tue; datetime (hours): 10:00" role="graphics-symbol" aria-roledescription="circle" transform="translate(107.14285714285715,218.75)" d="M3.4071090662682706,0A3.4071090662682706,3.4071090662682706,0,1,1,-3.4071090662682706,0A3.4071090662682706,3.4071090662682706,0,1,1,3.4071090662682706,0" fill="black" stroke-width="2"/><path aria-label="Mean of dead_count: 0.176991150442; datetime (day): Mon; datetime (hours): 02:00" role="graphics-symbol" aria-roledescription="circle" transform="translate(64.2857142857143,52.08333333333335)" d="M8.429372335693595,0A8.429372335693595,8.429372335693595,0,1,1,-8.429372335693595,0A8.429372335693595,8.429372335693595,0,1,1,8.429372335693595,0" fill="black" stroke-width="2"/><path aria-label="Mean of dead_count: 0.0381818181818; datetime (day): Fri; datetime (hours): 20:00" role="graphics-symbol" aria-roledescription="circle" transform="translate(235.71428571428572,427.0833333333333)" d="M3.915144215986803,0A3.915144215986803,3.915144215986803,0,1,1,-3.915144215986803,0A3.915144215986803,3.915144215986803,0,1,1,3.915144215986803,0" fill="black" stroke-width="2"/><path aria-label="Mean of dead_count: 0.070796460177; datetime (day): Wed; datetime (hours): 07:00" role="graphics-symbol" aria-roledescription="circle" transform="translate(150,156.25)" d="M5.331203165281042,0A5.331203165281042,5.331203165281042,0,1,1,-5.331203165281042,0A5.331203165281042,5.331203165281042,0,1,1,5.331203165281042,0" fill="black" stroke-width="2"/><path aria-label="Mean of dead_count: 0.031976744186; datetime (day): Tue; datetime (hours): 07:00" role="graphics-symbol" aria-roledescription="circle" transform="translate(107.14285714285715,156.25)" d="M3.5829156399165507,0A3.5829156399165507,3.5829156399165507,0,1,1,-3.5829156399165507,0A3.5829156399165507,3.5829156399165507,0,1,1,3.5829156399165507,0" fill="black" stroke-width="2"/><path aria-label="Mean of dead_count: 0.057268722467; datetime (day): Fri; datetime (hours): 22:00" role="graphics-symbol" aria-roledescription="circle" transform="translate(235.71428571428572,468.75)" d="M4.794885148892296,0A4.794885148892296,4.794885148892296,0,1,1,-4.794885148892296,0A4.794885148892296,4.794885148892296,0,1,1,4.794885148892296,0" fill="black" stroke-width="2"/><path aria-label="Mean of dead_count: 0.0992907801418; datetime (day): Tue; datetime (hours): 06:00" role="graphics-symbol" aria-roledescription="circle" transform="translate(107.14285714285715,135.41666666666669)" d="M6.313554343786409,0A6.313554343786409,6.313554343786409,0,1,1,-6.313554343786409,0A6.313554343786409,6.313554343786409,0,1,1,6.313554343786409,0" fill="black" stroke-width="2"/><path aria-label="Mean of dead_count: 0.036398467433; datetime (day): Sat; datetime (hours): 14:00" role="graphics-symbol" aria-roledescription="circle" transform="translate(278.57142857142856,302.0833333333333)" d="M3.8226189680468017,0A3.8226189680468017,3.8226189680468017,0,1,1,-3.8226189680468017,0A3.8226189680468017,3.8226189680468017,0,1,1,3.8226189680468017,0" fill="black" stroke-width="2"/><path aria-label="Mean of dead_count: 0.0537634408602; datetime (day): Tue; datetime (hours): 05:00" role="graphics-symbol" aria-roledescription="circle" transform="translate(107.14285714285715,114.58333333333334)" d="M4.645826526645618,0A4.645826526645618,4.645826526645618,0,1,1,-4.645826526645618,0A4.645826526645618,4.645826526645618,0,1,1,4.645826526645618,0" fill="black" stroke-width="2"/><path aria-label="Mean of dead_count: 0.0980392156863; datetime (day): Sun; datetime (hours): 04:00" role="graphics-symbol" aria-roledescription="circle" transform="translate(21.428571428571445,93.75000000000001)" d="M6.273636845544763,0A6.273636845544763,6.273636845544763,0,1,1,-6.273636845544763,0A6.273636845544763,6.273636845544763,0,1,1,6.273636845544763,0" fill="black" stroke-width="2"/><path aria-label="Mean of dead_count: 0.0541871921182; datetime (day): Sun; datetime (hours): 09:00" role="graphics-symbol" aria-roledescription="circle" transform="translate(21.428571428571445,197.91666666666669)" d="M4.664099267879629,0A4.664099267879629,4.664099267879629,0,1,1,-4.664099267879629,0A4.664099267879629,4.664099267879629,0,1,1,4.664099267879629,0" fill="black" stroke-width="2"/><path aria-label="Mean of dead_count: 0.0347222222222; datetime (day): Wed; datetime (hours): 10:00" role="graphics-symbol" aria-roledescription="circle" transform="translate(150,218.75)" d="M3.7335607099272736,0A3.7335607099272736,3.7335607099272736,0,1,1,-3.7335607099272736,0A3.7335607099272736,3.7335607099272736,0,1,1,3.7335607099272736,0" fill="black" stroke-width="2"/><path aria-label="Mean of dead_count: 0.105882352941; datetime (day): Mon; datetime (hours): 03:00" role="graphics-symbol" aria-roledescription="circle" transform="translate(64.2857142857143,72.91666666666669)" d="M6.519754658831803,0A6.519754658831803,6.519754658831803,0,1,1,-6.519754658831803,0A6.519754658831803,6.519754658831803,0,1,1,6.519754658831803,0" fill="black" stroke-width="2"/><path aria-label="Mean of dead_count: 0.0953545232274; datetime (day): Wed; datetime (hours): 22:00" role="graphics-symbol" aria-roledescription="circle" transform="translate(150,468.75)" d="M6.187142391042475,0A6.187142391042475,6.187142391042475,0,1,1,-6.187142391042475,0A6.187142391042475,6.187142391042475,0,1,1,6.187142391042475,0" fill="black" stroke-width="2"/><path aria-label="Mean of dead_count: 0.0368932038835; datetime (day): Tue; datetime (hours): 14:00" role="graphics-symbol" aria-roledescription="circle" transform="translate(107.14285714285715,302.0833333333333)" d="M3.8485102487739313,0A3.8485102487739313,3.8485102487739313,0,1,1,-3.8485102487739313,0A3.8485102487739313,3.8485102487739313,0,1,1,3.8485102487739313,0" fill="black" stroke-width="2"/><path aria-label="Mean of dead_count: 0.142857142857; datetime (day): Fri; datetime (hours): 05:00" role="graphics-symbol" aria-roledescription="circle" transform="translate(235.71428571428572,114.58333333333334)" d="M7.5730433262774115,0A7.5730433262774115,7.5730433262774115,0,1,1,-7.5730433262774115,0A7.5730433262774115,7.5730433262774115,0,1,1,7.5730433262774115,0" fill="black" stroke-width="2"/><path aria-label="Mean of dead_count: 0.0283400809717; datetime (day): Tue; datetime (hours): 09:00" role="graphics-symbol" aria-roledescription="circle" transform="translate(107.14285714285715,197.91666666666669)" d="M3.373028454506004,0A3.373028454506004,3.373028454506004,0,1,1,-3.373028454506004,0A3.373028454506004,3.373028454506004,0,1,1,3.373028454506004,0" fill="black" stroke-width="2"/><path aria-label="Mean of dead_count: 0.169014084507; datetime (day): Wed; datetime (hours): 04:00" role="graphics-symbol" aria-roledescription="circle" transform="translate(150,93.75000000000001)" d="M8.23722464424323,0A8.23722464424323,8.23722464424323,0,1,1,-8.23722464424323,0A8.23722464424323,8.23722464424323,0,1,1,8.23722464424323,0" fill="black" stroke-width="2"/><path aria-label="Mean of dead_count: 0.08125; datetime (day): Fri; datetime (hours): 06:00" role="graphics-symbol" aria-roledescription="circle" transform="translate(235.71428571428572,135.41666666666669)" d="M5.711249674530746,0A5.711249674530746,5.711249674530746,0,1,1,-5.711249674530746,0A5.711249674530746,5.711249674530746,0,1,1,5.711249674530746,0" fill="black" stroke-width="2"/><path aria-label="Mean of dead_count: 0.159292035398; datetime (day): Tue; datetime (hours): 00:00" role="graphics-symbol" aria-roledescription="circle" transform="translate(107.14285714285715,10.416666666666686)" d="M7.996804747921564,0A7.996804747921564,7.996804747921564,0,1,1,-7.996804747921564,0A7.996804747921564,7.996804747921564,0,1,1,7.996804747921564,0" fill="black" stroke-width="2"/><path aria-label="Mean of dead_count: 0.0845070422535; datetime (day): Wed; datetime (hours): 01:00" role="graphics-symbol" aria-roledescription="circle" transform="translate(150,31.250000000000018)" d="M5.8245974041013335,0A5.8245974041013335,5.8245974041013335,0,1,1,-5.8245974041013335,0A5.8245974041013335,5.8245974041013335,0,1,1,5.8245974041013335,0" fill="black" stroke-width="2"/><path aria-label="Mean of dead_count: 0.0714285714286; datetime (day): Wed; datetime (hours): 06:00" role="graphics-symbol" aria-roledescription="circle" transform="translate(150,135.41666666666669)" d="M5.354950290230287,0A5.354950290230287,5.354950290230287,0,1,1,-5.354950290230287,0A5.354950290230287,5.354950290230287,0,1,1,5.354950290230287,0" fill="black" stroke-width="2"/><path aria-label="Mean of dead_count: 0.124087591241; datetime (day): Mon; datetime (hours): 00:00" role="graphics-symbol" aria-roledescription="circle" transform="translate(64.2857142857143,10.416666666666686)" d="M7.058032252699112,0A7.058032252699112,7.058032252699112,0,1,1,-7.058032252699112,0A7.058032252699112,7.058032252699112,0,1,1,7.058032252699112,0" fill="black" stroke-width="2"/><path aria-label="Mean of dead_count: 0.165605095541; datetime (day): Sun; datetime (hours): 06:00" role="graphics-symbol" aria-roledescription="circle" transform="translate(21.428571428571445,135.41666666666669)" d="M8.1537296809008,0A8.1537296809008,8.1537296809008,0,1,1,-8.1537296809008,0A8.1537296809008,8.1537296809008,0,1,1,8.1537296809008,0" fill="black" stroke-width="2"/><path aria-label="Mean of dead_count: 0.0412926391382; datetime (day): Fri; datetime (hours): 08:00" role="graphics-symbol" aria-roledescription="circle" transform="translate(235.71428571428572,177.08333333333334)" d="M4.071512588568078,0A4.071512588568078,4.071512588568078,0,1,1,-4.071512588568078,0A4.071512588568078,4.071512588568078,0,1,1,4.071512588568078,0" fill="black" stroke-width="2"/><path aria-label="Mean of dead_count: 0.155339805825; datetime (day): Mon; datetime (hours): 05:00" role="graphics-symbol" aria-roledescription="circle" transform="translate(64.2857142857143,114.58333333333334)" d="M7.896976406039804,0A7.896976406039804,7.896976406039804,0,1,1,-7.896976406039804,0A7.896976406039804,7.896976406039804,0,1,1,7.896976406039804,0" fill="black" stroke-width="2"/><path aria-label="Mean of dead_count: 0.16; datetime (day): Mon; datetime (hours): 01:00" role="graphics-symbol" aria-roledescription="circle" transform="translate(64.2857142857143,31.250000000000018)" d="M8.014555723698965,0A8.014555723698965,8.014555723698965,0,1,1,-8.014555723698965,0A8.014555723698965,8.014555723698965,0,1,1,8.014555723698965,0" fill="black" stroke-width="2"/><path aria-label="Mean of dead_count: 0.122641509434; datetime (day): Sat; datetime (hours): 02:00" role="graphics-symbol" aria-roledescription="circle" transform="translate(278.57142857142856,52.08333333333335)" d="M7.016785572167466,0A7.016785572167466,7.016785572167466,0,1,1,-7.016785572167466,0A7.016785572167466,7.016785572167466,0,1,1,7.016785572167466,0" fill="black" stroke-width="2"/><path aria-label="Mean of dead_count: 0.0448717948718; datetime (day): Mon; datetime (hours): 06:00" role="graphics-symbol" aria-roledescription="circle" transform="translate(64.2857142857143,135.41666666666669)" d="M4.244301062829583,0A4.244301062829583,4.244301062829583,0,1,1,-4.244301062829583,0A4.244301062829583,4.244301062829583,0,1,1,4.244301062829583,0" fill="black" stroke-width="2"/><path aria-label="Mean of dead_count: 0.149068322981; datetime (day): Tue; datetime (hours): 01:00" role="graphics-symbol" aria-roledescription="circle" transform="translate(107.14285714285715,31.250000000000018)" d="M7.735923107055122,0A7.735923107055122,7.735923107055122,0,1,1,-7.735923107055122,0A7.735923107055122,7.735923107055122,0,1,1,7.735923107055122,0" fill="black" stroke-width="2"/><path aria-label="Mean of dead_count: 0.125; datetime (day): Sat; datetime (hours): 07:00" role="graphics-symbol" aria-roledescription="circle" transform="translate(278.57142857142856,156.25)" d="M7.083933375531245,0A7.083933375531245,7.083933375531245,0,1,1,-7.083933375531245,0A7.083933375531245,7.083933375531245,0,1,1,7.083933375531245,0" fill="black" stroke-width="2"/><path aria-label="Mean of dead_count: 0.10152284264; datetime (day): Fri; datetime (hours): 01:00" role="graphics-symbol" aria-roledescription="circle" transform="translate(235.71428571428572,31.250000000000018)" d="M6.384124476794011,0A6.384124476794011,6.384124476794011,0,1,1,-6.384124476794011,0A6.384124476794011,6.384124476794011,0,1,1,6.384124476794011,0" fill="black" stroke-width="2"/><path aria-label="Mean of dead_count: 0.148648648649; datetime (day): Thu; datetime (hours): 04:00" role="graphics-symbol" aria-roledescription="circle" transform="translate(192.85714285714286,93.75000000000001)" d="M7.725025900480472,0A7.725025900480472,7.725025900480472,0,1,1,-7.725025900480472,0A7.725025900480472,7.725025900480472,0,1,1,7.725025900480472,0" fill="black" stroke-width="2"/><path aria-label="Mean of dead_count: 0.22480620155; datetime (day): Tue; datetime (hours): 02:00" role="graphics-symbol" aria-roledescription="circle" transform="translate(107.14285714285715,52.08333333333335)" d="M9.5,0A9.5,9.5,0,1,1,-9.5,0A9.5,9.5,0,1,1,9.5,0" fill="black" stroke-width="2"/><path aria-label="Mean of dead_count: 0.116279069767; datetime (day): Fri; datetime (hours): 02:00" role="graphics-symbol" aria-roledescription="circle" transform="translate(235.71428571428572,52.08333333333335)" d="M6.832352046166723,0A6.832352046166723,6.832352046166723,0,1,1,-6.832352046166723,0A6.832352046166723,6.832352046166723,0,1,1,6.832352046166723,0" fill="black" stroke-width="2"/><path aria-label="Mean of dead_count: 0.102272727273; datetime (day): Thu; datetime (hours): 05:00" role="graphics-symbol" aria-roledescription="circle" transform="translate(192.85714285714286,114.58333333333334)" d="M6.407658830867164,0A6.407658830867164,6.407658830867164,0,1,1,-6.407658830867164,0A6.407658830867164,6.407658830867164,0,1,1,6.407658830867164,0" fill="black" stroke-width="2"/><path aria-label="Mean of dead_count: 0.0823529411765; datetime (day): Fri; datetime (hours): 04:00" role="graphics-symbol" aria-roledescription="circle" transform="translate(235.71428571428572,93.75000000000001)" d="M5.749883145474572,0A5.749883145474572,5.749883145474572,0,1,1,-5.749883145474572,0A5.749883145474572,5.749883145474572,0,1,1,5.749883145474572,0" fill="black" stroke-width="2"/><path aria-label="Mean of dead_count: 0.203539823009; datetime (day): Wed; datetime (hours): 05:00" role="graphics-symbol" aria-roledescription="circle" transform="translate(150,114.58333333333334)" d="M9.039494768504486,0A9.039494768504486,9.039494768504486,0,1,1,-9.039494768504486,0A9.039494768504486,9.039494768504486,0,1,1,9.039494768504486,0" fill="black" stroke-width="2"/></g></g><path class="foreground" aria-hidden="true" d="" display="none"/></g></g></g></svg>